<?xml version="1.0" encoding="UTF-8" standalone="no" ?>
<!DOCTYPE svg PUBLIC "-//W3C//DTD SVG 1.1//EN" "http://www.w3.org/Graphics/SVG/1.1/DTD/svg11.dtd">
<svg xmlns="http://www.w3.org/2000/svg" xmlns:xlink="http://www.w3.org/1999/xlink" version="1.1" width="1080" height="1080" viewBox="0 0 1080 1080" xml:space="preserve">
<desc>Created with Fabric.js 5.2.4</desc>
<defs>
</defs>
<rect x="0" y="0" width="100%" height="100%" fill="transparent"></rect>
<g transform="matrix(1 0 0 1 540 540)" id="5a829e56-30ba-4932-ba73-91969373b740"  >
<rect style="stroke: none; stroke-width: 1; stroke-dasharray: none; stroke-linecap: butt; stroke-dashoffset: 0; stroke-linejoin: miter; stroke-miterlimit: 4; fill: rgb(255,255,255); fill-rule: nonzero; opacity: 1; visibility: hidden;" vector-effect="non-scaling-stroke"  x="-540" y="-540" rx="0" ry="0" width="1080" height="1080" />
</g>
<g transform="matrix(1 0 0 1 540 540)" id="5e739172-900f-4e4c-9c33-d39273319401"  >
</g>
<g transform="matrix(1 0 0 1 540 540)"  >
<g style="" vector-effect="non-scaling-stroke"   >
		<g transform="matrix(1 0 0 1 6.63 -78.53)"  >
<path style="stroke: none; stroke-width: 1; stroke-dasharray: none; stroke-linecap: butt; stroke-dashoffset: 0; stroke-linejoin: miter; stroke-miterlimit: 4; fill: rgb(255,255,255); fill-rule: nonzero; opacity: 1;" vector-effect="non-scaling-stroke"  transform=" translate(-262.58, -177.41)" d="M 265.652 166.341 C 264.116 163.738 264.073 160.513 265.55 157.876 L 301.168 93.748 L 269.569 93.748 L 219.026 187.615 L 247.40800000000002 187.615 C 250.215 187.615 252.852 188.997 254.43900000000002 191.318 C 256.035 193.631 256.38500000000005 196.592 255.36900000000003 199.22 L 231.57800000000003 261.07 L 306.125 170.548 L 273.007 170.548 C 269.979 170.548 267.188 168.952 265.652 166.341 z" stroke-linecap="round" />
</g>
		<g transform="matrix(1 0 0 1 0 -76.8)"  >
<path style="stroke: none; stroke-width: 1; stroke-dasharray: none; stroke-linecap: butt; stroke-dashoffset: 0; stroke-linejoin: miter; stroke-miterlimit: 4; fill: rgb(255,255,255); fill-rule: nonzero; opacity: 1;" vector-effect="non-scaling-stroke"  transform=" translate(-255.94, -179.14)" d="M 425.54 155.213 C 416.759 74.769 352.033 9.907 271.632 0.99 C 266.82800000000003 0.46099999999999997 261.759 0.137 255.734 0 C 250.119 0.137 245.05 0.461 240.23700000000002 0.99 C 159.846 9.907 95.12 74.769 86.348 155.213 C 80.383 209.89499999999998 99.6 262.955 139.067 300.80899999999997 C 157.209 318.20799999999997 170.24800000000002 338.287 176.614 358.28099999999995 L 335.26599999999996 358.28099999999995 C 341.63199999999995 338.2869999999999 354.67099999999994 318.20799999999997 372.813 300.80899999999997 C 412.279 262.955 431.496 209.894 425.54 155.213 z M 330.794 167.441 L 211.327 312.508 C 209.654 314.53 207.214 315.614 204.739 315.614 C 203.263 315.614 201.786 315.239 200.43800000000002 314.462 C 196.82000000000002 312.337 195.275 307.926 196.769 304.017 L 234.981 204.68 L 204.74 204.68 C 201.73600000000002 204.68 198.954 203.11 197.418 200.524 C 195.874 197.947 195.805 194.747 197.23000000000002 192.11 L 256.963 81.177 C 258.44800000000004 78.40400000000001 261.332 76.68 264.47200000000004 76.68 L 315.672 76.68 C 318.701 76.68 321.492 78.284 323.028 80.887 C 324.564 83.49 324.598 86.715 323.13 89.361 L 287.512 153.481 L 324.205 153.481 C 327.507 153.481 330.51099999999997 155.392 331.919 158.379 C 333.328 161.357 332.893 164.89 330.794 167.441 z" stroke-linecap="round" />
</g>
		<g transform="matrix(1 0 0 1 -0.01 187.68)"  >
<path style="stroke: none; stroke-width: 1; stroke-dasharray: none; stroke-linecap: butt; stroke-dashoffset: 0; stroke-linejoin: miter; stroke-miterlimit: 4; fill: rgb(255,255,255); fill-rule: nonzero; opacity: 1;" vector-effect="non-scaling-stroke"  transform=" translate(-255.94, -443.62)" d="M 179.136 392.418 L 247.403 392.418 C 252.12199999999999 392.418 255.93599999999998 396.232 255.93599999999998 400.951 C 255.93599999999998 405.67 252.12199999999999 409.48400000000004 247.403 409.48400000000004 L 179.136 409.48400000000004 L 179.136 426.55100000000004 L 221.803 426.55100000000004 C 226.522 426.55100000000004 230.33599999999998 430.36500000000007 230.33599999999998 435.08400000000006 C 230.33599999999998 439.80300000000005 226.522 443.6170000000001 221.803 443.6170000000001 L 179.136 443.6170000000001 L 179.136 469.2170000000001 C 179.136 473.9360000000001 182.959 477.7500000000001 187.66899999999998 477.7500000000001 L 200.47799999999998 477.7500000000001 L 215.82999999999998 498.2210000000001 C 222.23899999999998 506.77100000000013 232.444 511.8830000000001 243.13699999999997 511.8830000000001 L 268.73699999999997 511.8830000000001 C 279.429 511.8830000000001 289.64399999999995 506.7720000000001 296.044 498.2210000000001 L 311.404 477.7500000000001 L 324.204 477.7500000000001 C 328.923 477.7500000000001 332.737 473.9360000000001 332.737 469.2170000000001 L 332.737 443.6170000000001 L 264.47 443.6170000000001 C 259.76000000000005 443.6170000000001 255.93700000000004 439.80300000000005 255.93700000000004 435.08400000000006 C 255.93700000000004 430.36500000000007 259.76000000000005 426.55100000000004 264.47 426.55100000000004 L 332.737 426.55100000000004 L 332.737 409.48400000000004 L 290.07000000000005 409.48400000000004 C 285.36000000000007 409.48400000000004 281.53700000000003 405.67 281.53700000000003 400.951 C 281.53700000000003 396.232 285.36 392.418 290.07000000000005 392.418 L 332.7370000000001 392.418 L 332.7370000000001 375.351 L 179.13700000000009 375.351 L 179.13700000000009 392.418 z M 290.069 477.751 L 282.389 487.991 C 279.189 492.26599999999996 274.086 494.818 268.736 494.818 L 243.136 494.818 C 237.79399999999998 494.818 232.691 492.267 229.483 487.991 L 221.803 477.751 L 290.069 477.751 z" stroke-linecap="round" />
</g>
</g>
</g>
</svg>